<?xml version="1.0" encoding="utf-8"?>
<!-- Generator: Adobe Illustrator 24.1.1, SVG Export Plug-In . SVG Version: 6.00 Build 0)  -->
<svg version="1.1" id="Слой_1" xmlns="http://www.w3.org/2000/svg" xmlns:xlink="http://www.w3.org/1999/xlink" x="0px" y="0px"
	 viewBox="0 0 512 512" style="enable-background:new 0 0 512 512;" xml:space="preserve">
<style type="text/css">
	.st0{fill:#FFFFFF;}
</style>
<g id="_19-ewallet">
	<g id="linear_color">
		<path class="st0" d="M408,6H168c-14.4,0-26,11.6-26,26v108H82c-23.2,0-42,18.8-42,42v128c0,23.2,18.8,42,42,42h60v128
			c0,14.4,11.6,26,26,26h240c14.4,0,26-11.6,26-26V32C434,17.6,422.4,6,408,6z M168,26h240c3.3,0,6,2.7,6,6v30H162V32
			C162,28.7,164.7,26,168,26z M60,310V182c0-12.1,9.9-22,22-22h166v52h-22c-14.4,0-26,11.6-26,26v16c0,14.4,11.6,26,26,26h22v52H82
			C69.9,332,60,322.1,60,310z M264,232v28h-38c-3.3,0-6-2.7-6-6v-16c0-3.3,2.7-6,6-6H264z M258,352c5.5,0,10-4.5,10-10v-62h6
			c5.5,0,10-4.5,10-10v-48c0-5.5-4.5-10-10-10h-6v-62c0-5.5-4.5-10-10-10h-96V82h252V406H162v-54H258z M408,486H168
			c-3.3,0-6-2.7-6-6v-54h252v54C414,483.3,411.3,486,408,486z"/>
		<path class="st0" d="M314,446h-51c-5.5,0-10,4.5-10,10s4.5,10,10,10h51c5.5,0,10-4.5,10-10S319.6,446,314,446z"/>
		<path class="st0" d="M172,270c0-18.8-15.2-34-34-34h-16c-7.7,0-14-6.3-14-14s6.3-14,14-14h24c3.3,0,6,2.7,6,6c0,5.5,4.5,10,10,10
			s10-4.5,10-10c0-14.4-11.6-26-26-26h-6v-6c0-5.5-4.5-10-10-10c-5.5,0-10,4.5-10,10v6.1c-18.7,1.1-33,17.3-31.9,36
			C89.2,242,104.1,256,122,256h16c7.7,0,14,6.3,14,14s-6.3,14-14,14h-23c-3.3,0-6-2.7-6-6c0-5.5-4.5-10-10-10s-10,4.5-10,10
			c0,14.4,11.6,26,26,26h5v6c0,5.5,4.5,10,10,10c5.5,0,10-4.5,10-10v-6.1C158,302.9,172,288,172,270z"/>
		<path class="st0" d="M325.2,242.8c0,5.8-2.3,11.4-6.4,15.6c-4,3.9-4,10.2-0.2,14.1s10.2,4,14.1,0.2c0.1-0.1,0.1-0.1,0.2-0.2
			c16.4-16.4,16.4-43,0-59.4c0,0,0,0,0,0c-3.9-3.9-10.2-3.9-14.1,0c-3.9,3.9-3.9,10.2,0,14.1C322.9,231.3,325.2,236.9,325.2,242.8z"
			/>
		<path class="st0" d="M352.7,306.4c3.9,3.9,10.2,3.9,14.1,0c0,0,0,0,0,0c35.1-35.1,35.1-92.1,0-127.3c0,0,0,0,0,0
			c-3.9-3.9-10.2-3.9-14.1,0c-3.9,3.9-3.9,10.2,0,14.1l0,0c27.3,27.3,27.3,71.7,0,99l0,0C348.8,296.2,348.8,302.5,352.7,306.4
			C352.7,306.4,352.7,306.4,352.7,306.4z"/>
	</g>
</g>
</svg>
