<?xml version="1.0" encoding="utf-8"?>
<!-- Generator: Adobe Illustrator 24.1.1, SVG Export Plug-In . SVG Version: 6.00 Build 0)  -->
<svg version="1.1" id="regular" xmlns="http://www.w3.org/2000/svg" xmlns:xlink="http://www.w3.org/1999/xlink" x="0px" y="0px"
	 viewBox="0 0 512 512" style="enable-background:new 0 0 512 512;" xml:space="preserve">
<style type="text/css">
	.st0{fill:#FFFFFF;}
</style>
<path class="st0" d="M212,167.6c-10.6-6.3-24.2,1.3-24.2,13.7v149.3c0,12.5,13.6,20,24.2,13.8l125.2-74.6c10.4-6.2,10.4-21.3,0-27.5
	L212,167.6z M219.8,302.5v-93l78,46.6L219.8,302.5z"/>
<path class="st0" d="M424.6,69.8C325.4,55,186.7,55,87.4,69.8c-39.7,5.9-71,37.1-77.8,77.6c-12.7,75.2-12.7,142.2,0,217.3
	c6.8,40.5,38.1,71.7,77.8,77.6c49.7,7.4,109.3,11.1,168.9,11.1c59.4,0,118.8-3.7,168.4-11.1c39.7-5.9,71-37.1,77.8-77.6
	c12.7-75.2,12.7-142.2,0-217.3C495.6,106.9,464.3,75.7,424.6,69.8L424.6,69.8z M465.2,357.3c-4.4,26.3-24.4,46.5-49.6,50.3
	c-93.8,14-225,14-319.1,0c-25.3-3.8-45.2-24-49.6-50.3c-11.9-71-11.9-131.6,0-202.7c4.4-26.3,24.4-46.4,49.7-50.3
	c47-7,103.3-10.5,159.5-10.5c56.3,0,112.6,3.5,159.5,10.5c25.3,3.8,45.2,24,49.6,50.3C477.1,225.7,477.1,286.3,465.2,357.3
	L465.2,357.3z"/>
</svg>
