<?xml version="1.0" encoding="utf-8"?>
<!-- Generator: Adobe Illustrator 24.1.1, SVG Export Plug-In . SVG Version: 6.00 Build 0)  -->
<svg version="1.1" id="Слой_1" xmlns="http://www.w3.org/2000/svg" xmlns:xlink="http://www.w3.org/1999/xlink" x="0px" y="0px"
	 viewBox="0 0 512 512" style="enable-background:new 0 0 512 512;" xml:space="preserve">
<style type="text/css">
	.st0{fill:#FFD763;}
</style>
<g id="Call_and_email">
	<path class="st0" d="M488,40H120c-4.4,0-8,3.6-8,8v47.1c-9.2-4.6-20.3-2.8-27.6,4.4l-22.6,22.6c-59.3,59.4-59.3,155.6,0,215
		l113.1,113.1c59.4,59.4,155.6,59.4,215,0l22.6-22.6c9.4-9.4,9.4-24.6,0-33.9l-67.9-67.9c-9.4-9.4-24.6-9.4-33.9,0c0,0,0,0,0,0
		L288,348.5l-11.3,11.3c-21.9,21.8-57.3,21.8-79.2,0l-45.3-45.3c-3.1-3.2-5.9-6.7-8.2-10.5h344c4.4,0,8-3.6,8-8V48
		C496,43.6,492.4,40,488,40z M163.5,224l22.6-22.6c9.4-9.4,9.4-24.6,0-33.9L128,109.3V65.6L253.9,175L136,272.5
		c0.6-14,6.4-27.3,16.3-37.2L163.5,224z M309.2,192.8c-3,2.6-7.5,2.6-10.5,0L141.4,56h325.2L309.2,192.8z M266.1,185.6l22.1,19.2
		c9.1,7.8,22.5,7.8,31.5,0l22.1-19.2L465.8,288H142.3L266.1,185.6z M354.1,175L480,65.6V279L354.1,175z M95.7,110.8
		c3.1-3.1,8.2-3.1,11.3,0c0,0,0,0,0,0l67.9,67.9c3.1,3.1,3.1,8.2,0,11.3l-17,17l-79.2-79.2L95.7,110.8z M321.9,337.1
		c3.1-3.1,8.2-3.1,11.3,0c0,0,0,0,0,0l67.9,67.9c3.1,3.1,3.1,8.2,0,11.3c0,0,0,0,0,0l-17,17L305,354.1L321.9,337.1z M186.2,371.1
		c28.1,28.1,73.7,28.1,101.8,0l5.7-5.7l79,79c-53.9,47.7-135.6,45.3-186.5-5.5L73,325.8c-50.8-51-53.2-132.7-5.5-186.5l79,79
		l-5.7,5.7c-28.1,28.1-28.1,73.7,0,101.8L186.2,371.1z"/>
</g>
</svg>
